<?xml version="1.0" standalone="no"?>
<!DOCTYPE svg PUBLIC "-//W3C//DTD SVG 20010904//EN"
 "http://www.w3.org/TR/2001/REC-SVG-20010904/DTD/svg10.dtd">
<svg version="1.0" xmlns="http://www.w3.org/2000/svg"
 width="512.000000pt" height="512.000000pt" viewBox="0 0 512.000000 512.000000"
 preserveAspectRatio="xMidYMid meet">

<g transform="translate(0.000000,512.000000) scale(0.100000,-0.100000)"
fill="#fff" stroke="none">
<path d="M2420 4829 c-441 -24 -864 -181 -1235 -459 -131 -97 -341 -308 -440
-441 -275 -369 -431 -794 -453 -1236 -34 -671 195 -1271 663 -1738 189 -190
398 -339 630 -450 622 -296 1363 -291 1975 14 246 123 418 247 610 440 463
465 695 1077 659 1735 -40 714 -416 1364 -1020 1765 -406 270 -886 397 -1389
370z m306 -233 c290 -14 674 -144 939 -316 233 -153 456 -376 608 -611 466
-718 429 -1664 -91 -2342 -86 -112 -213 -250 -223 -240 -4 4 -40 89 -79 188
-82 206 -117 273 -201 385 -136 180 -340 312 -576 373 -85 21 -104 22 -548 22
l-460 0 -95 -27 c-278 -76 -494 -241 -640 -487 -22 -38 -75 -153 -116 -257
-42 -104 -79 -193 -83 -197 -11 -12 -152 140 -242 262 -264 354 -398 762 -399
1206 0 245 28 427 101 648 140 429 438 815 820 1067 293 193 646 310 989 329
69 4 141 6 160 4 19 -1 81 -4 136 -7z m268 -2781 c229 -40 429 -174 549 -367
34 -54 227 -507 227 -532 0 -11 -207 -136 -309 -187 -283 -140 -577 -209 -901
-209 -343 0 -653 76 -950 233 -59 32 -206 123 -253 158 -13 10 170 457 221
538 116 188 318 325 538 365 116 21 758 22 878 1z"/>
<path d="M2453 4060 c-256 -36 -487 -176 -631 -386 -80 -116 -140 -298 -149
-449 -13 -241 70 -470 236 -647 191 -204 426 -300 699 -285 129 7 209 26 320
78 110 51 191 109 278 202 406 426 284 1121 -244 1395 -143 75 -356 113 -509
92z m271 -250 c116 -29 207 -82 298 -172 63 -63 85 -94 122 -170 55 -115 69
-178 69 -293 0 -181 -59 -321 -193 -456 -70 -71 -100 -94 -170 -127 -195 -93
-385 -93 -580 0 -69 33 -101 57 -171 127 -94 94 -145 181 -175 301 -22 85 -22
235 0 319 49 183 180 343 354 430 120 61 304 77 446 41z"/>
</g>
</svg>
